<svg xmlns="http://www.w3.org/2000/svg" width="192" height="192" fill="none"><g stroke="#000" stroke-width="12" transform="matrix(.8 0 0 .8 180 1.8)"><circle cx="-118.6" cy="184" r="34.2"/><path d="M-80.9 65.2a34.2 34.2 0 0 1-27.6 33.2 34.2 34.2 0 0 1-38-20.4 34.2 34.2 0 0 1 12.2-41.4 34.2 34.2 0 0 1 43 3.6"/><path stroke-linecap="round" d="m-140.1 88 48.5-48.1"/><path d="M-198.1 148.5a31.9 31.9 0 0 1-8.7-31 31.9 31.9 0 0 1 22.6-22.7 31.9 31.9 0 0 1 31 8.4m-45.1 45.3 24.2 24.2m20.7-69.6 24.2 24.3m49.3 21.3a31.9 31.9 0 0 1-8.6-30.8A31.9 31.9 0 0 1-66 95a31.9 31.9 0 0 1 30.9 8.4M-80 148.7l24.2 24.3m20.7-69.6 24.2 24.2"/></g></svg>